solid OpenSCAD_Model
  facet normal -1 0 0
    outer loop
      vertex -2.25 -2.25 0
      vertex -2.25 103.25 2
      vertex -2.25 103.25 0
    endloop
  endfacet
  facet normal -1 -0 0
    outer loop
      vertex -2.25 103.25 2
      vertex -2.25 -2.25 0
      vertex -2.25 -2.25 2
    endloop
  endfacet
  facet normal 0 0 1
    outer loop
      vertex 103.25 103.25 2
      vertex 101 101 2
      vertex 103.25 -2.25 2
    endloop
  endfacet
  facet normal 0 0 1
    outer loop
      vertex 103.25 103.25 2
      vertex 0 101 2
      vertex 101 101 2
    endloop
  endfacet
  facet normal 0 0 1
    outer loop
      vertex 0 101 2
      vertex -2.25 103.25 2
      vertex 0 0 2
    endloop
  endfacet
  facet normal -0 0 1
    outer loop
      vertex -2.25 103.25 2
      vertex 0 101 2
      vertex 103.25 103.25 2
    endloop
  endfacet
  facet normal -0 0 1
    outer loop
      vertex 101 0 2
      vertex 103.25 -2.25 2
      vertex 101 101 2
    endloop
  endfacet
  facet normal -0 0 1
    outer loop
      vertex 0 0 2
      vertex 103.25 -2.25 2
      vertex 101 0 2
    endloop
  endfacet
  facet normal 0 0 1
    outer loop
      vertex 0 0 2
      vertex -2.25 -2.25 2
      vertex 103.25 -2.25 2
    endloop
  endfacet
  facet normal 0 0 1
    outer loop
      vertex -2.25 -2.25 2
      vertex 0 0 2
      vertex -2.25 103.25 2
    endloop
  endfacet
  facet normal 1 -0 0
    outer loop
      vertex 103.25 -2.25 2
      vertex 103.25 103.25 0
      vertex 103.25 103.25 2
    endloop
  endfacet
  facet normal 1 0 0
    outer loop
      vertex 103.25 103.25 0
      vertex 103.25 -2.25 2
      vertex 103.25 -2.25 0
    endloop
  endfacet
  facet normal 0 1 -0
    outer loop
      vertex 103.25 103.25 0
      vertex -2.25 103.25 2
      vertex 103.25 103.25 2
    endloop
  endfacet
  facet normal 0 1 0
    outer loop
      vertex -2.25 103.25 2
      vertex 103.25 103.25 0
      vertex -2.25 103.25 0
    endloop
  endfacet
  facet normal 0 0 -1
    outer loop
      vertex -2.25 -2.25 0
      vertex 103.25 103.25 0
      vertex 103.25 -2.25 0
    endloop
  endfacet
  facet normal -0 0 -1
    outer loop
      vertex 103.25 103.25 0
      vertex -2.25 -2.25 0
      vertex -2.25 103.25 0
    endloop
  endfacet
  facet normal 0 -1 0
    outer loop
      vertex -2.25 -2.25 0
      vertex 103.25 -2.25 2
      vertex -2.25 -2.25 2
    endloop
  endfacet
  facet normal 0 -1 -0
    outer loop
      vertex 103.25 -2.25 2
      vertex -2.25 -2.25 0
      vertex 103.25 -2.25 0
    endloop
  endfacet
  facet normal -1 0 0
    outer loop
      vertex 0 0 2
      vertex 0 101 9.8
      vertex 0 101 2
    endloop
  endfacet
  facet normal -1 -0 0
    outer loop
      vertex 0 101 9.8
      vertex 0 0 2
      vertex 0 0 9.8
    endloop
  endfacet
  facet normal -0 0 1
    outer loop
      vertex 0 101 9.8
      vertex 101 0 9.8
      vertex 101 101 9.8
    endloop
  endfacet
  facet normal 0 0 1
    outer loop
      vertex 101 0 9.8
      vertex 0 101 9.8
      vertex 0 0 9.8
    endloop
  endfacet
  facet normal 1 -0 0
    outer loop
      vertex 101 0 9.8
      vertex 101 101 2
      vertex 101 101 9.8
    endloop
  endfacet
  facet normal 1 0 0
    outer loop
      vertex 101 101 2
      vertex 101 0 9.8
      vertex 101 0 2
    endloop
  endfacet
  facet normal 0 1 -0
    outer loop
      vertex 101 101 2
      vertex 0 101 9.8
      vertex 101 101 9.8
    endloop
  endfacet
  facet normal 0 1 0
    outer loop
      vertex 0 101 9.8
      vertex 101 101 2
      vertex 0 101 2
    endloop
  endfacet
  facet normal 0 -1 0
    outer loop
      vertex 0 0 2
      vertex 101 0 9.8
      vertex 0 0 9.8
    endloop
  endfacet
  facet normal 0 -1 -0
    outer loop
      vertex 101 0 9.8
      vertex 0 0 2
      vertex 101 0 2
    endloop
  endfacet
endsolid OpenSCAD_Model
