solid OpenSCAD_Model
  facet normal -1 0 0
    outer loop
      vertex -2.25 -2.25 0
      vertex -2.25 180.25 2
      vertex -2.25 180.25 0
    endloop
  endfacet
  facet normal -1 -0 0
    outer loop
      vertex -2.25 180.25 2
      vertex -2.25 -2.25 0
      vertex -2.25 -2.25 2
    endloop
  endfacet
  facet normal 0 0 1
    outer loop
      vertex 0 9.75 2
      vertex -0.25 9.75 2
      vertex 0 0 2
    endloop
  endfacet
  facet normal 0 0 1
    outer loop
      vertex 9.75 0 2
      vertex 0 0 2
      vertex 9.75 -0.25 2
    endloop
  endfacet
  facet normal 0 0 1
    outer loop
      vertex 180.25 180.25 2
      vertex 178.75 167.75 2
      vertex 180.25 -2.25 2
    endloop
  endfacet
  facet normal 0 0 1
    outer loop
      vertex 180.25 180.25 2
      vertex 178 178 2
      vertex 178.75 167.75 2
    endloop
  endfacet
  facet normal 0 0 1
    outer loop
      vertex 180.25 180.25 2
      vertex 167.75 178.75 2
      vertex 178 178 2
    endloop
  endfacet
  facet normal 0 0 1
    outer loop
      vertex 180.25 180.25 2
      vertex 9.75 178.75 2
      vertex 167.75 178.75 2
    endloop
  endfacet
  facet normal 0 0 1
    outer loop
      vertex 9.75 178.75 2
      vertex 0 178 2
      vertex 9.75 178 2
    endloop
  endfacet
  facet normal 0 0 1
    outer loop
      vertex 0 178 2
      vertex -0.25 167.75 2
      vertex 0 167.75 2
    endloop
  endfacet
  facet normal 0 0 1
    outer loop
      vertex -0.25 167.75 2
      vertex -2.25 180.25 2
      vertex -0.25 9.75 2
    endloop
  endfacet
  facet normal 0 0 1
    outer loop
      vertex 0 178 2
      vertex -2.25 180.25 2
      vertex -0.25 167.75 2
    endloop
  endfacet
  facet normal 0 0 1
    outer loop
      vertex 9.75 178.75 2
      vertex -2.25 180.25 2
      vertex 0 178 2
    endloop
  endfacet
  facet normal -0 0 1
    outer loop
      vertex -2.25 180.25 2
      vertex 9.75 178.75 2
      vertex 180.25 180.25 2
    endloop
  endfacet
  facet normal -0 0 1
    outer loop
      vertex 178.75 9.75 2
      vertex 180.25 -2.25 2
      vertex 178.75 167.75 2
    endloop
  endfacet
  facet normal 0 0 1
    outer loop
      vertex 178 0 2
      vertex 178.75 9.75 2
      vertex 178 9.75 2
    endloop
  endfacet
  facet normal 0 0 1
    outer loop
      vertex 178.75 9.75 2
      vertex 178 0 2
      vertex 180.25 -2.25 2
    endloop
  endfacet
  facet normal 0 0 1
    outer loop
      vertex 167.75 -0.25 2
      vertex 178 0 2
      vertex 167.75 0 2
    endloop
  endfacet
  facet normal 0 0 1
    outer loop
      vertex 178 0 2
      vertex 167.75 -0.25 2
      vertex 180.25 -2.25 2
    endloop
  endfacet
  facet normal -0 0 1
    outer loop
      vertex 9.75 -0.25 2
      vertex 180.25 -2.25 2
      vertex 167.75 -0.25 2
    endloop
  endfacet
  facet normal 0 0 1
    outer loop
      vertex 9.75 -0.25 2
      vertex -2.25 -2.25 2
      vertex 180.25 -2.25 2
    endloop
  endfacet
  facet normal 0 0 1
    outer loop
      vertex 0 0 2
      vertex -2.25 -2.25 2
      vertex 9.75 -0.25 2
    endloop
  endfacet
  facet normal 0 0 1
    outer loop
      vertex -0.25 9.75 2
      vertex -2.25 -2.25 2
      vertex 0 0 2
    endloop
  endfacet
  facet normal 0 0 1
    outer loop
      vertex -2.25 -2.25 2
      vertex -0.25 9.75 2
      vertex -2.25 180.25 2
    endloop
  endfacet
  facet normal 0 0 1
    outer loop
      vertex 178.75 167.75 2
      vertex 178 178 2
      vertex 178 167.75 2
    endloop
  endfacet
  facet normal 0 0 1
    outer loop
      vertex 178 178 2
      vertex 167.75 178.75 2
      vertex 167.75 178 2
    endloop
  endfacet
  facet normal -0 0 1
    outer loop
      vertex 0 167.75 2
      vertex 9.75 9.75 2
      vertex 9.75 167.75 2
    endloop
  endfacet
  facet normal 0 0 1
    outer loop
      vertex 0 167.75 2
      vertex 0 9.75 2
      vertex 9.75 9.75 2
    endloop
  endfacet
  facet normal -0 0 1
    outer loop
      vertex -0.25 167.75 2
      vertex 0 9.75 2
      vertex 0 167.75 2
    endloop
  endfacet
  facet normal 0 0 1
    outer loop
      vertex 0 9.75 2
      vertex -0.25 167.75 2
      vertex -0.25 9.75 2
    endloop
  endfacet
  facet normal 0 0 1
    outer loop
      vertex 9.75 178 2
      vertex 167.75 178 2
      vertex 167.75 178.75 2
    endloop
  endfacet
  facet normal 0 0 1
    outer loop
      vertex 167.75 178 2
      vertex 9.75 167.75 2
      vertex 167.75 167.75 2
    endloop
  endfacet
  facet normal 0 0 1
    outer loop
      vertex 167.75 167.75 2
      vertex 9.75 167.75 2
      vertex 167.75 9.75 2
    endloop
  endfacet
  facet normal 0 0 1
    outer loop
      vertex 9.75 9.75 2
      vertex 167.75 9.75 2
      vertex 9.75 167.75 2
    endloop
  endfacet
  facet normal 0 0 1
    outer loop
      vertex 9.75 178 2
      vertex 167.75 178.75 2
      vertex 9.75 178.75 2
    endloop
  endfacet
  facet normal 0 0 1
    outer loop
      vertex 167.75 178 2
      vertex 9.75 178 2
      vertex 9.75 167.75 2
    endloop
  endfacet
  facet normal 0 0 1
    outer loop
      vertex 167.75 9.75 2
      vertex 9.75 9.75 2
      vertex 167.75 0 2
    endloop
  endfacet
  facet normal 0 0 1
    outer loop
      vertex 9.75 0 2
      vertex 167.75 0 2
      vertex 9.75 9.75 2
    endloop
  endfacet
  facet normal 0 0 1
    outer loop
      vertex 167.75 0 2
      vertex 9.75 0 2
      vertex 167.75 -0.25 2
    endloop
  endfacet
  facet normal 0 0 1
    outer loop
      vertex 167.75 -0.25 2
      vertex 9.75 0 2
      vertex 9.75 -0.25 2
    endloop
  endfacet
  facet normal -0 0 1
    outer loop
      vertex 178 167.75 2
      vertex 178.75 9.75 2
      vertex 178.75 167.75 2
    endloop
  endfacet
  facet normal 0 0 1
    outer loop
      vertex 178 167.75 2
      vertex 178 9.75 2
      vertex 178.75 9.75 2
    endloop
  endfacet
  facet normal -0 0 1
    outer loop
      vertex 167.75 167.75 2
      vertex 178 9.75 2
      vertex 178 167.75 2
    endloop
  endfacet
  facet normal 0 0 1
    outer loop
      vertex 178 9.75 2
      vertex 167.75 167.75 2
      vertex 167.75 9.75 2
    endloop
  endfacet
  facet normal 1 -0 0
    outer loop
      vertex 180.25 -2.25 2
      vertex 180.25 180.25 0
      vertex 180.25 180.25 2
    endloop
  endfacet
  facet normal 1 0 0
    outer loop
      vertex 180.25 180.25 0
      vertex 180.25 -2.25 2
      vertex 180.25 -2.25 0
    endloop
  endfacet
  facet normal 0 1 -0
    outer loop
      vertex 180.25 180.25 0
      vertex -2.25 180.25 2
      vertex 180.25 180.25 2
    endloop
  endfacet
  facet normal 0 1 0
    outer loop
      vertex -2.25 180.25 2
      vertex 180.25 180.25 0
      vertex -2.25 180.25 0
    endloop
  endfacet
  facet normal 0 0 -1
    outer loop
      vertex -2.25 -2.25 0
      vertex 180.25 180.25 0
      vertex 180.25 -2.25 0
    endloop
  endfacet
  facet normal -0 0 -1
    outer loop
      vertex 180.25 180.25 0
      vertex -2.25 -2.25 0
      vertex -2.25 180.25 0
    endloop
  endfacet
  facet normal 0 -1 0
    outer loop
      vertex -2.25 -2.25 0
      vertex 180.25 -2.25 2
      vertex -2.25 -2.25 2
    endloop
  endfacet
  facet normal 0 -1 -0
    outer loop
      vertex 180.25 -2.25 2
      vertex -2.25 -2.25 0
      vertex 180.25 -2.25 0
    endloop
  endfacet
  facet normal -1 0 0
    outer loop
      vertex 0 0 2
      vertex 0 9.75 29.8
      vertex 0 9.75 2
    endloop
  endfacet
  facet normal -1 -0 0
    outer loop
      vertex 0 9.75 29.8
      vertex 0 0 2
      vertex 0 0 29.8
    endloop
  endfacet
  facet normal -1 0 0
    outer loop
      vertex 0 167.75 2
      vertex 0 178 29.8
      vertex 0 178 2
    endloop
  endfacet
  facet normal -1 -0 0
    outer loop
      vertex 0 178 29.8
      vertex 0 167.75 2
      vertex 0 167.75 29.8
    endloop
  endfacet
  facet normal -0 0 1
    outer loop
      vertex 167.75 9.75 29.8
      vertex 178 0 29.8
      vertex 178 9.75 29.8
    endloop
  endfacet
  facet normal 0 0 1
    outer loop
      vertex 178 0 29.8
      vertex 167.75 9.75 29.8
      vertex 167.75 0 29.8
    endloop
  endfacet
  facet normal -0 0 1
    outer loop
      vertex 0 9.75 29.8
      vertex 9.75 0 29.8
      vertex 9.75 9.75 29.8
    endloop
  endfacet
  facet normal 0 0 1
    outer loop
      vertex 9.75 0 29.8
      vertex 0 9.75 29.8
      vertex 0 0 29.8
    endloop
  endfacet
  facet normal -0 0 1
    outer loop
      vertex 167.75 178 29.8
      vertex 178 167.75 29.8
      vertex 178 178 29.8
    endloop
  endfacet
  facet normal 0 0 1
    outer loop
      vertex 178 167.75 29.8
      vertex 167.75 178 29.8
      vertex 167.75 167.75 29.8
    endloop
  endfacet
  facet normal -0 0 1
    outer loop
      vertex 0 178 29.8
      vertex 9.75 167.75 29.8
      vertex 9.75 178 29.8
    endloop
  endfacet
  facet normal 0 0 1
    outer loop
      vertex 9.75 167.75 29.8
      vertex 0 178 29.8
      vertex 0 167.75 29.8
    endloop
  endfacet
  facet normal 1 -0 0
    outer loop
      vertex 178 0 29.8
      vertex 178 9.75 2
      vertex 178 9.75 29.8
    endloop
  endfacet
  facet normal 1 0 0
    outer loop
      vertex 178 9.75 2
      vertex 178 0 29.8
      vertex 178 0 2
    endloop
  endfacet
  facet normal 1 -0 0
    outer loop
      vertex 178 167.75 29.8
      vertex 178 178 2
      vertex 178 178 29.8
    endloop
  endfacet
  facet normal 1 0 0
    outer loop
      vertex 178 178 2
      vertex 178 167.75 29.8
      vertex 178 167.75 2
    endloop
  endfacet
  facet normal 0 1 -0
    outer loop
      vertex 178 178 2
      vertex 167.75 178 29.8
      vertex 178 178 29.8
    endloop
  endfacet
  facet normal 0 1 0
    outer loop
      vertex 167.75 178 29.8
      vertex 178 178 2
      vertex 167.75 178 2
    endloop
  endfacet
  facet normal 0 1 -0
    outer loop
      vertex 9.75 178 2
      vertex 0 178 29.8
      vertex 9.75 178 29.8
    endloop
  endfacet
  facet normal 0 1 0
    outer loop
      vertex 0 178 29.8
      vertex 9.75 178 2
      vertex 0 178 2
    endloop
  endfacet
  facet normal 0 -1 0
    outer loop
      vertex 167.75 0 2
      vertex 178 0 29.8
      vertex 167.75 0 29.8
    endloop
  endfacet
  facet normal 0 -1 -0
    outer loop
      vertex 178 0 29.8
      vertex 167.75 0 2
      vertex 178 0 2
    endloop
  endfacet
  facet normal 0 -1 0
    outer loop
      vertex 0 0 2
      vertex 9.75 0 29.8
      vertex 0 0 29.8
    endloop
  endfacet
  facet normal 0 -1 -0
    outer loop
      vertex 9.75 0 29.8
      vertex 0 0 2
      vertex 9.75 0 2
    endloop
  endfacet
  facet normal 1 -0 0
    outer loop
      vertex 9.75 0 29.8
      vertex 9.75 9.75 2
      vertex 9.75 9.75 29.8
    endloop
  endfacet
  facet normal 1 0 0
    outer loop
      vertex 9.75 9.75 2
      vertex 9.75 0 29.8
      vertex 9.75 0 2
    endloop
  endfacet
  facet normal 1 -0 0
    outer loop
      vertex 9.75 167.75 29.8
      vertex 9.75 178 2
      vertex 9.75 178 29.8
    endloop
  endfacet
  facet normal 1 0 0
    outer loop
      vertex 9.75 178 2
      vertex 9.75 167.75 29.8
      vertex 9.75 167.75 2
    endloop
  endfacet
  facet normal -1 0 0
    outer loop
      vertex 167.75 0 2
      vertex 167.75 9.75 29.8
      vertex 167.75 9.75 2
    endloop
  endfacet
  facet normal -1 -0 0
    outer loop
      vertex 167.75 9.75 29.8
      vertex 167.75 0 2
      vertex 167.75 0 29.8
    endloop
  endfacet
  facet normal -1 0 0
    outer loop
      vertex 167.75 167.75 2
      vertex 167.75 178 29.8
      vertex 167.75 178 2
    endloop
  endfacet
  facet normal -1 -0 0
    outer loop
      vertex 167.75 178 29.8
      vertex 167.75 167.75 2
      vertex 167.75 167.75 29.8
    endloop
  endfacet
  facet normal 0 -1 0
    outer loop
      vertex 0 167.75 2
      vertex 9.75 167.75 29.8
      vertex 0 167.75 29.8
    endloop
  endfacet
  facet normal 0 -1 -0
    outer loop
      vertex 9.75 167.75 29.8
      vertex 0 167.75 2
      vertex 9.75 167.75 2
    endloop
  endfacet
  facet normal 0 -1 0
    outer loop
      vertex 167.75 167.75 2
      vertex 178 167.75 29.8
      vertex 167.75 167.75 29.8
    endloop
  endfacet
  facet normal 0 -1 -0
    outer loop
      vertex 178 167.75 29.8
      vertex 167.75 167.75 2
      vertex 178 167.75 2
    endloop
  endfacet
  facet normal 0 1 -0
    outer loop
      vertex 9.75 9.75 2
      vertex 0 9.75 29.8
      vertex 9.75 9.75 29.8
    endloop
  endfacet
  facet normal 0 1 0
    outer loop
      vertex 0 9.75 29.8
      vertex 9.75 9.75 2
      vertex 0 9.75 2
    endloop
  endfacet
  facet normal 0 1 -0
    outer loop
      vertex 178 9.75 2
      vertex 167.75 9.75 29.8
      vertex 178 9.75 29.8
    endloop
  endfacet
  facet normal 0 1 0
    outer loop
      vertex 167.75 9.75 29.8
      vertex 178 9.75 2
      vertex 167.75 9.75 2
    endloop
  endfacet
endsolid OpenSCAD_Model
